<?xml version="1.0" encoding="UTF-8"?>
<!DOCTYPE svg PUBLIC "-//W3C//DTD SVG 1.1//EN" "http://www.w3.org/Graphics/SVG/1.1/DTD/svg11.dtd">
<svg xmlns="http://www.w3.org/2000/svg" version="1.1" width="2500px" height="2500px" style="shape-rendering:geometricPrecision; text-rendering:geometricPrecision; image-rendering:optimizeQuality; fill-rule:evenodd; clip-rule:evenodd" xmlns:xlink="http://www.w3.org/1999/xlink">
<g><path style="opacity:1" fill="#fefefe" d="M -0.5,-0.5 C 832.833,-0.5 1666.17,-0.5 2499.5,-0.5C 2499.5,832.833 2499.5,1666.17 2499.5,2499.5C 1666.17,2499.5 832.833,2499.5 -0.5,2499.5C -0.5,1666.17 -0.5,832.833 -0.5,-0.5 Z"/></g>
<g><path style="opacity:1" fill="#5c5c5b" d="M 758.5,750.5 C 755.833,750.5 753.167,750.5 750.5,750.5C 750.5,754.167 750.5,757.833 750.5,761.5C 749.517,757.702 749.183,753.702 749.5,749.5C 752.713,749.19 755.713,749.523 758.5,750.5 Z"/></g>
<g><path style="opacity:1" fill="#1d1d1b" d="M 758.5,750.5 C 908.685,764.159 1029.85,830.159 1122,948.5C 1182.64,1029.88 1216.14,1121.55 1222.5,1223.5C 1083.15,1214.07 966.981,1157.74 874,1054.5C 801.626,970.37 760.459,872.703 750.5,761.5C 750.5,757.833 750.5,754.167 750.5,750.5C 753.167,750.5 755.833,750.5 758.5,750.5 Z"/></g>
<g><path style="opacity:1" fill="#1d1d1b" d="M 1280.5,1223.5 C 1279.5,1223.5 1278.5,1223.5 1277.5,1223.5C 1277.5,1221.5 1277.5,1219.5 1277.5,1217.5C 1290.61,1065.41 1356.95,942.577 1476.5,849C 1557.46,789.146 1648.46,755.979 1749.5,749.5C 1737.37,907.301 1668.7,1033.8 1543.5,1129C 1465,1185.34 1377.34,1216.84 1280.5,1223.5 Z"/></g>
<g><path style="opacity:1" fill="#9c9c9c" d="M 1277.5,1217.5 C 1277.5,1219.5 1277.5,1221.5 1277.5,1223.5C 1278.5,1223.5 1279.5,1223.5 1280.5,1223.5C 1279.43,1224.43 1278.1,1224.77 1276.5,1224.5C 1276.2,1221.94 1276.53,1219.61 1277.5,1217.5 Z"/></g>
<g><path style="opacity:1" fill="#1d1d1b" d="M 761.5,1748.5 C 757.833,1748.5 754.167,1748.5 750.5,1748.5C 750.5,1745.83 750.5,1743.17 750.5,1740.5C 763.422,1592.59 827.422,1472.42 942.5,1380C 1025.19,1316.48 1118.86,1281.65 1223.5,1275.5C 1213.32,1412.68 1157.99,1527.84 1057.5,1621C 973.277,1695.92 874.611,1738.42 761.5,1748.5 Z"/></g>
<g><path style="opacity:1" fill="#1d1d1b" d="M 1748.5,1738.5 C 1748.5,1741.83 1748.5,1745.17 1748.5,1748.5C 1745.5,1748.5 1742.5,1748.5 1739.5,1748.5C 1589.73,1734.55 1468.9,1668.55 1377,1550.5C 1316.44,1469.01 1283.27,1377.34 1277.5,1275.5C 1432.18,1287.41 1556.68,1354.41 1651,1476.5C 1708.34,1554.25 1740.84,1641.59 1748.5,1738.5 Z"/></g>
<g><path style="opacity:1" fill="#5d5d5c" d="M 750.5,1740.5 C 750.5,1743.17 750.5,1745.83 750.5,1748.5C 754.167,1748.5 757.833,1748.5 761.5,1748.5C 757.702,1749.48 753.702,1749.82 749.5,1749.5C 749.19,1746.29 749.523,1743.29 750.5,1740.5 Z"/></g>
<g><path style="opacity:1" fill="#545453" d="M 1748.5,1738.5 C 1749.48,1741.96 1749.81,1745.63 1749.5,1749.5C 1745.96,1749.81 1742.62,1749.48 1739.5,1748.5C 1742.5,1748.5 1745.5,1748.5 1748.5,1748.5C 1748.5,1745.17 1748.5,1741.83 1748.5,1738.5 Z"/></g>
</svg>
